HIERARCHY
ROOT Root
{
  OFFSET 0.0 0.0 0.0
  CHANNELS 6 Xposition Yposition Zposition Zrotation Yrotation Xrotation
  JOINT Hips
  {
    OFFSET 0.0 100.0 0.0
    CHANNELS 6 Xposition Yposition Zposition Zrotation Yrotation Xrotation
    JOINT Spine1
    {
      OFFSET 5.003913 -0.037094 -0.013727
      CHANNELS 3 Zrotation Yrotation Xrotation
      JOINT Spine2
      {
        OFFSET 7.125363 -1e-06 0.0
        CHANNELS 3 Zrotation Yrotation Xrotation
        JOINT Chest
        {
          OFFSET 7.594027 1e-06 0.0
          CHANNELS 3 Zrotation Yrotation Xrotation
          JOINT Neck1
          {
            OFFSET 26.313086 -0.460272 -0.181672
            CHANNELS 3 Zrotation Yrotation Xrotation
            JOINT Neck2
            {
              OFFSET 8.045911 0.0 0.0
              CHANNELS 3 Zrotation Yrotation Xrotation
              JOINT Head
              {
                OFFSET 6.432774 0.0 0.0
                CHANNELS 3 Zrotation Yrotation Xrotation
                JOINT HeadEnd
                {
                  OFFSET 16.169773 0.06451 0.00362
                  CHANNELS 3 Zrotation Yrotation Xrotation
                }
                JOINT Jaw
                {
                  OFFSET 0.108741 3.12938 0.002639
                  CHANNELS 3 Zrotation Yrotation Xrotation
                }
                JOINT LeftEye
                {
                  OFFSET 4.45173 8.166359 3.206392
                  CHANNELS 3 Zrotation Yrotation Xrotation
                }
                JOINT RightEye
                {
                  OFFSET 4.436895 8.135758 -3.222429
                  CHANNELS 3 Zrotation Yrotation Xrotation
                }
              }
            }
          }
          JOINT LeftShoulder
          {
            OFFSET 23.218927 5.195579 1.621656
            CHANNELS 3 Zrotation Yrotation Xrotation
            JOINT LeftArm
            {
              OFFSET 15.902118 2e-06 -2e-06
              CHANNELS 3 Zrotation Yrotation Xrotation
              JOINT LeftForeArm
              {
                OFFSET 28.739307 0.0 -1e-06
                CHANNELS 3 Zrotation Yrotation Xrotation
                JOINT LeftHand
                {
                  OFFSET 27.093981 -4e-06 0.0
                  CHANNELS 3 Zrotation Yrotation Xrotation
                  JOINT LeftHandThumb1
                  {
                    OFFSET 2.276781 3.380274 0.83384
                    CHANNELS 3 Zrotation Yrotation Xrotation
                    JOINT LeftHandThumb2
                    {
                      OFFSET 4.705309 -1e-06 -1e-06
                      CHANNELS 3 Zrotation Yrotation Xrotation
                      JOINT LeftHandThumb3
                      {
                        OFFSET 2.798515 0.0 3e-06
                        CHANNELS 3 Zrotation Yrotation Xrotation
                        JOINT LeftHandThumbEnd
                        {
                          OFFSET 3.180793 4e-06 -4e-06
                          CHANNELS 3 Zrotation Yrotation Xrotation
                        }
                      }
                    }
                  }
                  JOINT LeftHandIndex1
                  {
                    OFFSET 3.247786 2.352677 0.137192
                    CHANNELS 3 Zrotation Yrotation Xrotation
                    JOINT LeftHandIndex2
                    {
                      OFFSET 6.367095 1e-06 0.0
                      CHANNELS 3 Zrotation Yrotation Xrotation
                      JOINT LeftHandIndex3
                      {
                        OFFSET 3.662364 0.0 0.0
                        CHANNELS 3 Zrotation Yrotation Xrotation
                        JOINT LeftHandIndex4
                        {
                          OFFSET 2.329242 4e-06 -4e-06
                          CHANNELS 3 Zrotation Yrotation Xrotation
                          JOINT LeftHandIndexEnd
                          {
                            OFFSET 2.767823 1e-06 0.0
                            CHANNELS 3 Zrotation Yrotation Xrotation
                          }
                        }
                      }
                    }
                  }
                  JOINT LeftHandMiddle1
                  {
                    OFFSET 3.163612 0.945023 -0.406112
                    CHANNELS 3 Zrotation Yrotation Xrotation
                    JOINT LeftHandMiddle2
                    {
                      OFFSET 6.276789 3e-06 0.0
                      CHANNELS 3 Zrotation Yrotation Xrotation
                      JOINT LeftHandMiddle3
                      {
                        OFFSET 4.35652 -1e-06 4e-06
                        CHANNELS 3 Zrotation Yrotation Xrotation
                        JOINT LeftHandMiddle4
                        {
                          OFFSET 2.996877 0.0 8e-06
                          CHANNELS 3 Zrotation Yrotation Xrotation
                          JOINT LeftHandMiddleEnd
                          {
                            OFFSET 2.323256 3e-06 -4e-06
                            CHANNELS 3 Zrotation Yrotation Xrotation
                          }
                        }
                      }
                    }
                  }
                  JOINT LeftHandRing1
                  {
                    OFFSET 2.882606 -0.309162 0.107445
                    CHANNELS 3 Zrotation Yrotation Xrotation
                    JOINT LeftHandRing2
                    {
                      OFFSET 6.033198 0.0 4e-06
                      CHANNELS 3 Zrotation Yrotation Xrotation
                      JOINT LeftHandRing3
                      {
                        OFFSET 4.350578 3e-06 0.0
                        CHANNELS 3 Zrotation Yrotation Xrotation
                        JOINT LeftHandRing4
                        {
                          OFFSET 2.651321 2e-06 -7e-06
                          CHANNELS 3 Zrotation Yrotation Xrotation
                          JOINT LeftHandRingEnd
                          {
                            OFFSET 1.937663 1e-06 -4e-06
                            CHANNELS 3 Zrotation Yrotation Xrotation
                          }
                        }
                      }
                    }
                  }
                  JOINT LeftHandPinky1
                  {
                    OFFSET 2.865315 -1.525436 0.575687
                    CHANNELS 3 Zrotation Yrotation Xrotation
                    JOINT LeftHandPinky2
                    {
                      OFFSET 5.54936 1e-06 -8e-06
                      CHANNELS 3 Zrotation Yrotation Xrotation
                      JOINT LeftHandPinky3
                      {
                        OFFSET 3.070974 0.0 -4e-06
                        CHANNELS 3 Zrotation Yrotation Xrotation
                        JOINT LeftHandPinky4
                        {
                          OFFSET 1.549672 1e-06 0.0
                          CHANNELS 3 Zrotation Yrotation Xrotation
                          JOINT LeftHandPinkyEnd
                          {
                            OFFSET 1.952123 0.0 0.0
                            CHANNELS 3 Zrotation Yrotation Xrotation
                          }
                        }
                      }
                    }
                  }
                }
              }
            }
          }
          JOINT RightShoulder
          {
            OFFSET 23.161716 5.296122 -1.380114
            CHANNELS 3 Zrotation Yrotation Xrotation
            JOINT RightArm
            {
              OFFSET -16.027195 -2e-06 1.1e-05
              CHANNELS 3 Zrotation Yrotation Xrotation
              JOINT RightForeArm
              {
                OFFSET -28.736639 4e-06 2e-06
                CHANNELS 3 Zrotation Yrotation Xrotation
                JOINT RightHand
                {
                  OFFSET -27.133619 6e-06 0.0
                  CHANNELS 3 Zrotation Yrotation Xrotation
                  JOINT RightHandThumb1
                  {
                    OFFSET -2.274328 -3.351035 -0.83067
                    CHANNELS 3 Zrotation Yrotation Xrotation
                    JOINT RightHandThumb2
                    {
                      OFFSET -4.703594 -3e-06 2e-06
                      CHANNELS 3 Zrotation Yrotation Xrotation
                      JOINT RightHandThumb3
                      {
                        OFFSET -2.794935 -4e-06 -3e-06
                        CHANNELS 3 Zrotation Yrotation Xrotation
                        JOINT RightHandThumbEnd
                        {
                          OFFSET -3.183852 4e-06 1e-06
                          CHANNELS 3 Zrotation Yrotation Xrotation
                        }
                      }
                    }
                  }
                  JOINT RightHandIndex1
                  {
                    OFFSET -3.253496 -2.33755 -0.127667
                    CHANNELS 3 Zrotation Yrotation Xrotation
                    JOINT RightHandIndex2
                    {
                      OFFSET -6.344434 0.0 0.0
                      CHANNELS 3 Zrotation Yrotation Xrotation
                      JOINT RightHandIndex3
                      {
                        OFFSET -3.654871 0.0 -8e-06
                        CHANNELS 3 Zrotation Yrotation Xrotation
                        JOINT RightHandIndex4
                        {
                          OFFSET -2.327586 -1e-06 0.0
                          CHANNELS 3 Zrotation Yrotation Xrotation
                          JOINT RightHandIndexEnd
                          {
                            OFFSET -2.770001 3e-06 8e-06
                            CHANNELS 3 Zrotation Yrotation Xrotation
                          }
                        }
                      }
                    }
                  }
                  JOINT RightHandMiddle1
                  {
                    OFFSET -3.168223 -0.944764 0.411762
                    CHANNELS 3 Zrotation Yrotation Xrotation
                    JOINT RightHandMiddle2
                    {
                      OFFSET -6.266691 -1e-06 -4e-06
                      CHANNELS 3 Zrotation Yrotation Xrotation
                      JOINT RightHandMiddle3
                      {
                        OFFSET -4.348901 0.0 0.0
                        CHANNELS 3 Zrotation Yrotation Xrotation
                        JOINT RightHandMiddle4
                        {
                          OFFSET -3.00024 2e-06 -4e-06
                          CHANNELS 3 Zrotation Yrotation Xrotation
                          JOINT RightHandMiddleEnd
                          {
                            OFFSET -2.321477 -4e-06 -4e-06
                            CHANNELS 3 Zrotation Yrotation Xrotation
                          }
                        }
                      }
                    }
                  }
                  JOINT RightHandRing1
                  {
                    OFFSET -2.885654 0.293261 -0.119232
                    CHANNELS 3 Zrotation Yrotation Xrotation
                    JOINT RightHandRing2
                    {
                      OFFSET -6.032835 -1e-06 -4e-06
                      CHANNELS 3 Zrotation Yrotation Xrotation
                      JOINT RightHandRing3
                      {
                        OFFSET -4.33881 0.0 -4e-06
                        CHANNELS 3 Zrotation Yrotation Xrotation
                        JOINT RightHandRing4
                        {
                          OFFSET -2.654903 -4e-06 -4e-06
                          CHANNELS 3 Zrotation Yrotation Xrotation
                          JOINT RightHandRingEnd
                          {
                            OFFSET -1.935122 0.0 4e-06
                            CHANNELS 3 Zrotation Yrotation Xrotation
                          }
                        }
                      }
                    }
                  }
                  JOINT RightHandPinky1
                  {
                    OFFSET -2.866241 1.503904 -0.60527
                    CHANNELS 3 Zrotation Yrotation Xrotation
                    JOINT RightHandPinky2
                    {
                      OFFSET -5.553177 -2e-06 0.0
                      CHANNELS 3 Zrotation Yrotation Xrotation
                      JOINT RightHandPinky3
                      {
                        OFFSET -3.062664 -1e-06 -4e-06
                        CHANNELS 3 Zrotation Yrotation Xrotation
                        JOINT RightHandPinky4
                        {
                          OFFSET -1.546529 2e-06 4e-06
                          CHANNELS 3 Zrotation Yrotation Xrotation
                          JOINT RightHandPinkyEnd
                          {
                            OFFSET -1.952341 0.0 -4e-06
                            CHANNELS 3 Zrotation Yrotation Xrotation
                          }
                        }
                      }
                    }
                  }
                }
              }
            }
          }
        }
      }
    }
    JOINT LeftLeg
    {
      OFFSET -8.443107 2.567604 10.043214
      CHANNELS 3 Zrotation Yrotation Xrotation
      JOINT LeftShin
      {
        OFFSET 43.229198 1e-06 -1e-06
        CHANNELS 3 Zrotation Yrotation Xrotation
        JOINT LeftFoot
        {
          OFFSET 42.298611 1e-06 1e-06
          CHANNELS 3 Zrotation Yrotation Xrotation
          JOINT LeftToeBase
          {
            OFFSET 14.165858 1e-06 0.0
            CHANNELS 3 Zrotation Yrotation Xrotation
            JOINT LeftToeEnd
            {
              OFFSET 6.7141 -0.234461 0.0
              CHANNELS 3 Zrotation Yrotation Xrotation
            }
          }
        }
      }
    }
    JOINT RightLeg
    {
      OFFSET -8.303923 2.592729 -10.047278
      CHANNELS 3 Zrotation Yrotation Xrotation
      JOINT RightShin
      {
        OFFSET -43.369682 0.0 1e-06
        CHANNELS 3 Zrotation Yrotation Xrotation
        JOINT RightFoot
        {
          OFFSET -42.260784 4e-06 2e-06
          CHANNELS 3 Zrotation Yrotation Xrotation
          JOINT RightToeBase
          {
            OFFSET -14.222245 -2e-06 -1e-06
            CHANNELS 3 Zrotation Yrotation Xrotation
            JOINT RightToeEnd
            {
              OFFSET -6.660062 0.232574 -2e-06
              CHANNELS 3 Zrotation Yrotation Xrotation
            }
          }
        }
      }
    }
  }
}
MOTION
Frames: 4
Frame Time: 0.03333333333333333
0.0 0.0 0.0 0.0 -0.0 0.0 -18.365829 5.17208 -98.982742 -125.609886 89.57756 -143.6371 1.538325 2.855853 3.828485 -10.164342 1.020054 2.122941 15.397082 4.151361 -2.349034 -2.418014 -19.458815 8.708882 -3.02489 -2.121228 5.460493 -45.910328 -1.02929 1.870448 6e-06 -1e-06 1e-06 -0.144303 -0.012387 -0.026712 -0.838988 -0.440405 0.166976 -0.248257 0.39077 -0.221659 -70.851624 -66.835373 87.833122 7.665381 -54.305756 36.935524 24.708618 0.058767 -0.230857 -0.704763 0.850986 -0.785501 17.636629 -26.322731 52.411186 -19.466658 -14.395598 29.410389 1e-06 -8.774822 0.0 16.616508 -18.555614 5.842781 -0.609778 -1.795652 -3.889328 -4.807088 -11.046813 -2.93785 1e-06 -20.976019 2e-06 -5.019972 -25.033558 -4.03188 5e-06 -1e-06 -1e-06 -10.634534 -5.686973 -3.565587 10.573271 -17.922947 -3.113898 0.0 -13.82121 1e-06 -0.501782 -31.181505 -4.027016 -12.094932 -58.759476 7.363398 -13.982717 -7.150201 -2.875042 13.772731 -8.401491 -3.218242 0.347729 -34.211544 0.771656 -0.96303 -17.73337 2.621018 0.0 -3e-06 1e-06 -17.346422 -20.095221 -4.201782 21.757561 -1.638373 3.866428 0.0 -6.338824 -0.0 -1.697591 -22.591747 -6.194007 -1e-06 -4e-06 -1e-06 -162.254761 -69.861015 -12.369364 -2.878737 -69.2314 32.113621 21.970938 -0.572941 -0.971255 -2.02975 -4.796272 25.808578 22.182121 -20.375898 49.933319 -16.701811 -16.743528 28.476521 -1e-06 -12.690601 -1e-06 15.375237 -16.57016 1.80308 -0.105918 -1.513857 -4.275882 -5.039042 -5.61287 -2.953555 2e-06 -11.020527 0.0 -6.111298 -15.895334 -3.840471 -0.0 0.0 -1e-06 -10.283369 -5.68029 -4.341836 11.028295 -11.302406 -2.372632 -1.384272 -14.238584 -6.320119 -0.62544 -26.924194 -3.8276 -3.417443 -47.686295 -5.225712 -13.708527 -7.363478 -3.72094 18.14115 -14.05274 -3.242673 5e-06 -18.787271 -0.0 -0.429712 -8.456043 2.555506 0.0 2e-06 2e-06 -15.923538 -20.094484 -5.473584 30.419214 -7.190823 1.735926 1e-06 -8.162927 0.0 -1.861903 -22.861473 -6.167943 0.0 -1e-06 -3e-06 -179.080429 -17.349627 -25.515699 14.905206 0.008456 -1.25017 -63.700706 -15.368404 -33.050877 -8.880532 1.642815 1.119047 -0.999998 0.0 0.0 -24.330189 -33.303921 -39.409954 54.102604 5.804921 -3.341212 -46.495712 -30.024385 -17.209961 -6.948488 0.02945 0.550889 -1.000001 2e-06 0.0 
0.0 0.0 0.0 0.0 -0.0 0.0 -18.360229 5.164927 -98.952538 -123.824898 89.595551 -141.818863 1.53084 2.879626 3.823449 -10.16205 1.030686 2.104054 15.382154 4.159757 -2.373628 -2.433501 -19.604362 8.727006 -3.030161 -2.074826 5.476522 -45.80798 -1.028846 1.81107 6e-06 -1e-06 1e-06 -0.144292 -0.006847 -0.033641 -0.873087 -0.426713 0.158147 -0.271287 0.387265 -0.226508 -70.847481 -66.84462 87.84153 7.704246 -54.34063 36.841225 24.737572 0.028775 -0.231414 -0.784279 0.847376 -0.556708 17.636629 -26.322735 52.411182 -19.466665 -14.3956 29.410389 -0.0 -8.774822 -0.0 16.610325 -18.569729 5.872029 -0.609777 -1.795652 -3.889328 -4.807091 -11.04681 -2.937849 3e-06 -20.976017 1e-06 -5.019974 -25.03356 -4.031877 7e-06 1e-06 -1e-06 -10.634535 -5.68697 -3.565584 10.573276 -17.922951 -3.113902 2e-06 -13.821211 2e-06 -0.501782 -31.181501 -4.027011 -12.126472 -58.820976 7.38914 -13.982714 -7.150197 -2.87504 13.772731 -8.401493 -3.218243 0.347731 -34.211555 0.771656 -0.963029 -17.73337 2.621019 0.0 -2e-06 0.0 -17.346422 -20.095219 -4.201777 21.757561 -1.638375 3.866424 2e-06 -6.338825 -1e-06 -1.697591 -22.591745 -6.194002 -1e-06 -4e-06 -3e-06 -162.351273 -69.867989 -12.318342 -2.779773 -69.208305 31.954975 21.960934 -0.637915 -0.965322 -2.120275 -4.785224 25.894817 22.182112 -20.375895 49.933323 -16.701817 -16.743532 28.476532 -2e-06 -12.690605 3e-06 15.394396 -16.609497 1.805335 -0.105919 -1.513856 -4.27588 -5.039042 -5.61287 -2.953555 5e-06 -11.020527 -1e-06 -6.111299 -15.895338 -3.840474 -0.0 0.0 1e-06 -10.283371 -5.680289 -4.341835 11.028296 -11.302406 -2.372634 -1.38427 -14.238583 -6.320122 -0.625442 -26.924198 -3.827599 -3.45816 -47.680916 -5.202153 -13.708528 -7.363477 -3.720936 18.141153 -14.052742 -3.242677 6e-06 -18.787271 -0.0 -0.429712 -8.456043 2.555504 -0.0 -1e-06 2e-06 -15.923541 -20.094484 -5.47358 30.419222 -7.190827 1.735924 1e-06 -8.162927 -0.0 -1.861904 -22.861475 -6.167943 2e-06 -1e-06 -1e-06 -179.262115 -17.472275 -25.528772 15.270502 0.020076 -1.250694 -63.788696 -15.452866 -33.091766 -8.845191 1.634671 1.109061 -0.999999 -0.0 -0.0 -24.369894 -33.304665 -39.387802 54.17804 5.782831 -3.327891 -46.47493 -30.035095 -17.22188 -6.966856 0.019805 0.548696 -1.000003 1e-06 0.0 
0.0 0.0 0.0 0.0 -0.0 0.0 -18.354427 5.147463 -98.888893 -118.851646 89.58316 -136.81485 1.549101 2.901387 3.822273 -10.152843 1.035936 2.084445 15.368541 4.15636 -2.411702 -2.442759 -19.722986 8.738703 -3.037379 -1.993601 5.473977 -45.708443 -1.017261 1.776637 8e-06 -1e-06 1e-06 -0.142115 -0.003287 -0.037183 -0.914993 -0.418197 0.150854 -0.300775 0.384514 -0.225878 -70.810318 -66.86132 87.822975 7.710495 -54.393501 36.827515 24.751841 0.049401 -0.224734 -0.874152 0.861034 -0.374573 17.636633 -26.322733 52.411194 -19.466663 -14.395597 29.410389 -2e-06 -8.774822 -1e-06 16.625439 -18.567783 5.880974 -0.609776 -1.795654 -3.889328 -4.807087 -11.046811 -2.93785 4e-06 -20.976017 2e-06 -5.019968 -25.033554 -4.031878 4e-06 0.0 -2e-06 -10.634537 -5.686969 -3.56559 10.573275 -17.922953 -3.113897 4e-06 -13.821213 2e-06 -0.501776 -31.181505 -4.027013 -12.149625 -58.876278 7.397885 -13.982714 -7.150196 -2.875044 13.772731 -8.401493 -3.218241 0.347735 -34.211555 0.771657 -0.963026 -17.73337 2.62102 0.0 -1e-06 0.0 -17.346422 -20.095215 -4.201779 21.757557 -1.638378 3.866426 2e-06 -6.338823 1e-06 -1.697588 -22.591742 -6.194002 -1e-06 -4e-06 -3e-06 -162.423264 -69.880623 -12.265011 -2.571095 -69.177917 31.685661 21.939161 -0.716024 -0.964626 -2.180004 -4.788577 25.999241 22.182123 -20.375895 49.933308 -16.701815 -16.743534 28.476524 -4e-06 -12.690604 -0.0 15.425241 -16.656977 1.78371 -0.105919 -1.513855 -4.275881 -5.039042 -5.61287 -2.953557 5e-06 -11.020521 -1e-06 -6.111298 -15.895328 -3.84047 1e-06 0.0 1e-06 -10.283373 -5.680286 -4.34184 11.028297 -11.302404 -2.372632 -1.384269 -14.238576 -6.320119 -0.625438 -26.924183 -3.827595 -3.488144 -47.658733 -5.224369 -13.708526 -7.363473 -3.720937 18.141155 -14.052739 -3.242676 8e-06 -18.78727 1e-06 -0.429712 -8.456043 2.555506 -0.0 1e-06 1e-06 -15.923536 -20.094481 -5.473586 30.419218 -7.190829 1.735926 3e-06 -8.162925 1e-06 -1.861899 -22.861471 -6.167942 -1e-06 -2e-06 -0.0 -179.533173 -17.654627 -25.520998 15.908312 0.03403 -1.258259 -64.142021 -15.571323 -33.093807 -8.850472 1.625374 1.089103 -0.999998 -1e-06 -1e-06 -24.419628 -33.351494 -39.341145 54.34705 5.773656 -3.32735 -46.54871 -30.042622 -17.219851 -6.938698 0.004713 0.53767 -1.000002 0.0 -0.0 
0.0 0.0 0.0 0.0 -0.0 0.0 -18.37151 5.121046 -98.840691 -113.851021 89.54158 -131.794983 1.586659 2.895247 3.827353 -10.141288 1.025406 2.063107 15.354291 4.177089 -2.456512 -2.437549 -19.810181 8.760099 -3.045467 -1.935728 5.441923 -45.611393 -0.994331 1.773793 8e-06 -1e-06 1e-06 -0.139986 -0.005272 -0.034988 -0.943284 -0.420071 0.151489 -0.317808 0.381059 -0.221982 -70.81411 -66.883598 87.872917 7.716824 -54.434219 36.825298 24.747145 0.104402 -0.225261 -0.97998 0.893442 -0.227138 17.636627 -26.322725 52.41119 -19.46666 -14.395592 29.410389 -0.0 -8.77482 -1e-06 16.645397 -18.526339 5.863535 -0.609774 -1.795656 -3.889327 -4.807087 -11.046809 -2.937853 2e-06 -20.976015 1e-06 -5.019969 -25.033556 -4.031882 7e-06 -0.0 -1e-06 -10.634531 -5.686971 -3.565589 10.573272 -17.922947 -3.1139 4e-06 -13.82121 0.0 -0.501775 -31.181505 -4.027015 -12.162459 -58.910992 7.376974 -13.982712 -7.150197 -2.875042 13.772729 -8.401494 -3.218243 0.347736 -34.211544 0.771652 -0.963029 -17.73337 2.621021 1e-06 1e-06 1e-06 -17.346413 -20.095217 -4.201785 21.757557 -1.638376 3.866429 0.0 -6.338822 -3e-06 -1.697588 -22.591742 -6.194006 -1e-06 -4e-06 -2e-06 -162.466583 -69.896729 -12.234339 -2.361402 -69.132462 31.4266 21.928345 -0.804718 -0.977422 -2.223618 -4.81498 26.092318 22.182114 -20.375887 49.933315 -16.701813 -16.743528 28.476528 -3e-06 -12.6906 1e-06 15.444577 -16.673571 1.757182 -0.105918 -1.513858 -4.275881 -5.039041 -5.612868 -2.953555 5e-06 -11.020524 -1e-06 -6.111296 -15.89533 -3.840472 1e-06 0.0 1e-06 -10.283369 -5.680288 -4.341839 11.028296 -11.302403 -2.372633 -1.38427 -14.23858 -6.320122 -0.625437 -26.924187 -3.8276 -3.519378 -47.641293 -5.242468 -13.708523 -7.363474 -3.720938 18.14115 -14.052739 -3.242677 8e-06 -18.787266 -1e-06 -0.42971 -8.456039 2.555502 0.0 -1e-06 1e-06 -15.923532 -20.094482 -5.473587 30.41921 -7.190826 1.735927 2e-06 -8.162922 -1e-06 -1.8619 -22.861467 -6.167943 1e-06 -2e-06 -1e-06 -179.66069 -17.769983 -25.562021 16.286932 0.031219 -1.280424 -64.427261 -15.691433 -33.078873 -8.883204 1.619914 1.073234 -1.0 0.0 0.0 -24.432522 -33.390366 -39.295811 54.489666 5.779702 -3.342413 -46.653053 -30.054031 -17.184935 -6.873697 -0.012912 0.530694 -1.0 0.0 0.0 
